<?xml version="1.0" encoding="UTF-8"?>
<svg width="48px" height="48px" viewBox="0 0 48 48" version="1.1" xmlns="http://www.w3.org/2000/svg" xmlns:xlink="http://www.w3.org/1999/xlink">
    <!-- Generator: Sketch 55.2 (78181) - https://sketchapp.com -->
    <title>ic-belief-people</title>
    <desc>Created with Sketch.</desc>
    <g id="Page-1" stroke="none" stroke-width="1" fill="none" fill-rule="evenodd">
        <g id="02-About-Us---White-2" transform="translate(-380.000000, -1031.000000)" fill="#FF9400" fill-rule="nonzero">
            <path d="M422.607073,1065.96836 C425.75717,1067.62418 427.982609,1070.94218 427.982609,1074.78115 L427.982609,1077.59375 C427.982609,1078.37037 427.352984,1079 426.576358,1079 C425.664638,1079 381.921502,1079 381.387408,1079 C380.610782,1079 380,1078.37037 380,1077.59375 L380,1074.78115 C380,1070.90337 382.24119,1067.60599 385.356786,1065.96836 C383.847223,1064.67761 382.887597,1062.76155 382.887597,1060.62442 C382.887597,1056.74729 386.041912,1053.59298 389.919041,1053.59298 C393.79617,1053.59298 396.950485,1056.74729 396.950485,1060.62442 C396.950485,1062.75967 395.992453,1064.67433 394.485233,1065.96489 C395.399671,1066.44368 396.239016,1067.06589 396.968579,1067.81505 C397.685017,1067.07996 398.513674,1066.45689 399.42605,1065.97389 C397.912736,1064.68314 396.950485,1062.76464 396.950485,1060.62442 C396.950485,1056.74729 400.104801,1053.59298 403.98193,1053.59298 C407.858496,1053.59298 411.012436,1056.74635 411.013374,1060.62264 C411.014405,1056.74635 414.168252,1053.59298 418.044818,1053.59298 C421.921947,1053.59298 425.076263,1056.74729 425.076263,1060.62442 C425.076263,1062.76155 424.116637,1064.6777 422.607073,1065.96836 Z M418.044725,1056.40557 C415.718504,1056.40557 413.825877,1058.2982 413.825877,1060.62442 C413.825877,1062.95064 415.71841,1064.84327 418.044725,1064.84327 C420.370946,1064.84327 422.263572,1062.95073 422.263572,1060.62442 C422.263572,1058.2982 420.371039,1056.40557 418.044725,1056.40557 Z M411.013374,1060.6277 C411.012343,1062.76661 410.050373,1064.68389 408.537809,1065.97389 C409.450185,1066.45689 410.278748,1067.08005 410.995186,1067.81505 C411.724656,1067.0658 412.564,1066.44368 413.478533,1065.96489 C411.972062,1064.67489 411.014311,1062.76164 411.013374,1060.6277 Z M403.981836,1056.40557 C401.655521,1056.40557 399.762894,1058.2982 399.762988,1060.62442 C399.762988,1062.95064 401.655521,1064.84327 403.981836,1064.84327 C406.308057,1064.84327 408.200684,1062.95073 408.200684,1060.62442 C408.200684,1058.2982 406.308151,1056.40557 403.981836,1056.40557 Z M389.918853,1056.40557 C387.592539,1056.40557 385.700006,1058.2982 385.700006,1060.62442 C385.700006,1062.95064 387.592632,1064.84327 389.918853,1064.84327 C392.245074,1064.84327 394.137701,1062.95073 394.137701,1060.62442 C394.137701,1058.2982 392.245168,1056.40557 389.918853,1056.40557 Z M394.156545,1074.78115 C394.156545,1073.10499 394.551514,1071.52484 395.280421,1070.13827 C393.950951,1068.57105 392.001137,1067.65596 389.918853,1067.65596 C386.056631,1067.65596 382.793659,1070.91893 382.793659,1074.78115 L382.793659,1076.1874 L394.156545,1076.1874 L394.156545,1074.78115 Z M411.03203,1076.1875 L411.03203,1074.78125 C411.03203,1070.85246 407.858871,1067.65605 403.981742,1067.65605 C400.104613,1067.65605 396.950298,1070.85237 396.950298,1074.78125 L396.950298,1076.1875 L411.03203,1076.1875 Z M425.188763,1076.1875 L425.188763,1074.78115 C425.188763,1070.91893 421.907041,1067.65596 418.044818,1067.65596 C415.962441,1067.65596 414.012627,1068.57105 412.683251,1070.13827 C413.412064,1071.52493 413.825877,1073.10509 413.825877,1074.78125 L413.825877,1076.1875 L425.188763,1076.1875 Z M412.912001,1037.5528 C414.063721,1037.72015 414.524034,1039.13962 413.691439,1039.95149 L409.784873,1043.75943 L410.706999,1049.13638 C410.904155,1050.28585 409.694779,1051.1595 408.666528,1050.61885 L403.837742,1048.08019 L399.008956,1050.61885 C397.978736,1051.16054 396.771891,1050.28247 396.968485,1049.13638 L397.890611,1043.75943 L393.984232,1039.95149 C393.1507,1039.13905 393.612701,1037.72005 394.763577,1037.5528 L400.156363,1036.76915 L402.572585,1031.79074 C403.083991,1030.73708 404.590836,1030.73577 405.102899,1031.79074 L407.519121,1036.76915 L412.912001,1037.5528 Z M407.292058,1042.26131 L409.68756,1039.92627 L406.376963,1039.44524 C405.915713,1039.37821 405.51765,1039.08693 405.314118,1038.66759 L403.837648,1035.62549 L402.361272,1038.66759 C402.15774,1039.08693 401.759584,1039.37821 401.298333,1039.44524 L397.987924,1039.92618 L400.383426,1042.26131 C400.714833,1042.58437 400.866052,1043.04984 400.787864,1043.50603 L400.222363,1046.80322 L403.183366,1045.24659 C403.592961,1045.03125 404.082523,1045.03125 404.492118,1045.24659 L407.453121,1046.80322 L406.88762,1043.50603 C406.809432,1043.04984 406.960651,1042.58437 407.292058,1042.26131 Z" id="ic-belief-people"></path>
        </g>
    </g>
</svg>