<?xml version="1.0" encoding="UTF-8"?>
<svg width="48px" height="48px" viewBox="0 0 48 48" version="1.1" xmlns="http://www.w3.org/2000/svg" xmlns:xlink="http://www.w3.org/1999/xlink">
    <!-- Generator: Sketch 55.2 (78181) - https://sketchapp.com -->
    <title>ic-belief-research</title>
    <desc>Created with Sketch.</desc>
    <g id="Page-1" stroke="none" stroke-width="1" fill="none" fill-rule="evenodd">
        <g id="02-About-Us---White-2" transform="translate(-770.000000, -1030.000000)" fill="#4BD965" fill-rule="nonzero">
            <path d="M793.998964,1030 C780.765951,1030 770,1040.76655 770,1053.99974 C770,1067.23303 780.7663,1078 793.998964,1078 C807.232758,1078 818,1067.23319 818,1054 C818,1040.76664 807.232848,1030 793.998964,1030 Z M793.998964,1074.82594 C782.515622,1074.82594 773.173833,1065.48352 773.173833,1053.99948 C773.173833,1042.51584 782.515485,1033.1738 793.998964,1033.1738 C805.483419,1033.1738 814.826167,1042.51604 814.826167,1054 C814.826167,1065.48357 805.483289,1074.82594 793.998964,1074.82594 Z M793.999223,1043.16753 C788.027052,1043.16803 783.167411,1048.02785 783.167411,1053.99974 C783.167411,1059.97262 788.027002,1064.83247 793.999482,1064.83247 C799.972196,1064.83247 804.832071,1059.97265 804.832071,1054 C804.832071,1048.02714 799.972248,1043.16753 793.999223,1043.16753 Z M793.999482,1061.65867 C789.776412,1061.65867 786.341244,1058.22321 786.341244,1053.99974 C786.341244,1049.77697 789.776487,1046.3416 793.999482,1046.34133 C798.222944,1046.34133 801.658238,1049.77667 801.658238,1054 C801.658238,1058.22325 798.222773,1061.65867 793.999482,1061.65867 Z M793.999741,1057.84722 C796.124523,1057.84722 797.846998,1056.12476 797.846998,1054 C797.846998,1051.87524 796.124523,1050.15278 793.999741,1050.15278 C791.87496,1050.15278 790.152484,1051.87524 790.152484,1054 C790.152484,1056.12476 791.87496,1057.84722 793.999741,1057.84722 Z" id="ic-belief-research"></path>
        </g>
    </g>
</svg>