<?xml version="1.0" encoding="UTF-8"?>
<svg width="48px" height="48px" viewBox="0 0 48 48" version="1.1" xmlns="http://www.w3.org/2000/svg" xmlns:xlink="http://www.w3.org/1999/xlink">
    <!-- Generator: Sketch 55.2 (78181) - https://sketchapp.com -->
    <title>ic-belief-product driven</title>
    <desc>Created with Sketch.</desc>
    <g id="Page-1" stroke="none" stroke-width="1" fill="none" fill-rule="evenodd">
        <g id="02-About-Us---White-2" transform="translate(-1160.000000, -1030.000000)" fill="#007AFE" fill-rule="nonzero">
            <path d="M1206.59375,1069.5625 C1207.37048,1069.5625 1208,1070.19202 1208,1070.96875 C1208,1074.84583 1204.84583,1078 1200.96875,1078 L1167.03125,1078 C1163.15417,1078 1160,1074.84583 1160,1070.96875 C1160,1070.19202 1160.62952,1069.5625 1161.40625,1069.5625 L1162.8125,1069.5625 L1162.8125,1045.65625 C1162.8125,1043.33008 1164.70508,1041.4375 1167.03125,1041.4375 L1177.30786,1041.4375 C1178.05676,1037.33118 1180.00391,1033.61304 1182.80615,1030.63098 C1182.8446,1030.5896 1182.8761,1030.55664 1182.8988,1030.53174 C1183.16394,1030.19739 1183.5686,1030 1184,1030 C1184.43323,1030 1184.83972,1030.19958 1185.10522,1030.5365 C1185.12866,1030.5625 1185.16089,1030.59692 1185.20154,1030.64014 C1188.05139,1033.69727 1189.95349,1037.43152 1190.68921,1041.4375 L1200.96875,1041.4375 C1203.29492,1041.4375 1205.1875,1043.33008 1205.1875,1045.65625 L1205.1875,1069.5625 L1206.59375,1069.5625 Z M1200.96875,1044.25 L1191.00964,1044.25 C1191.02356,1044.55725 1191.03125,1044.86523 1191.03125,1045.17358 C1191.03125,1048.66284 1190.35815,1051.4303 1189.64111,1053.52759 L1192.02551,1055.91199 C1192.57483,1056.4613 1192.57483,1057.35156 1192.02551,1057.90051 C1191.47656,1058.44983 1190.58594,1058.44983 1190.03699,1057.90051 L1188.52344,1056.38733 C1188.40332,1056.67517 1188.29749,1056.93262 1188.21875,1057.14539 L1188.21875,1061.125 C1190.2688,1061.125 1192.12183,1062.25256 1193.10107,1063.98804 C1193.34717,1063.95435 1193.59509,1063.9375 1193.84375,1063.9375 C1195.34412,1063.9375 1196.76794,1064.51721 1197.85303,1065.57007 C1198.95532,1066.63977 1199.5625,1068.05737 1199.5625,1069.5625 L1202.375,1069.5625 L1202.375,1045.65625 C1202.375,1044.88098 1201.74402,1044.25 1200.96875,1044.25 Z M1171.34375,1069.5625 L1196.75,1069.5625 C1196.75,1068.03796 1195.41919,1066.75 1193.84375,1066.75 C1193.49329,1066.75 1193.14172,1066.81958 1192.79895,1066.95728 C1192.01782,1067.27112 1191.13745,1066.83167 1190.91772,1066.01978 C1190.58594,1064.7937 1189.47595,1063.9375 1188.21875,1063.9375 C1186.66785,1063.9375 1185.40625,1062.6759 1185.40625,1061.125 L1185.40625,1058.3125 L1182.59375,1058.3125 L1182.59375,1061.125 C1182.59375,1062.6759 1181.33215,1063.9375 1179.78125,1063.9375 C1178.52405,1063.9375 1177.41406,1064.7937 1177.08228,1066.01978 C1176.86255,1066.8324 1175.98181,1067.27112 1175.20105,1066.95728 C1174.85828,1066.81958 1174.50671,1066.75 1174.15625,1066.75 C1172.60535,1066.75 1171.34375,1068.0116 1171.34375,1069.5625 Z M1182.15247,1055.5 L1185.84644,1055.5 C1185.901,1055.36816 1185.9585,1055.2312 1186.01782,1055.08911 C1186.29175,1054.43616 1186.6272,1053.63489 1186.95276,1052.6864 L1181.04761,1052.6864 C1181.37756,1053.6499 1181.71851,1054.46399 1181.99646,1055.12646 C1182.05029,1055.25537 1182.10266,1055.37988 1182.15247,1055.5 Z M1188.21875,1045.17358 C1188.21875,1043.91199 1188.08362,1042.66101 1187.82214,1041.4375 L1180.17456,1041.4375 C1179.91528,1042.65918 1179.78125,1043.91016 1179.78125,1045.17358 C1179.78125,1046.93433 1179.97827,1048.50061 1180.26794,1049.875 L1187.73279,1049.875 C1188.02209,1048.50281 1188.21875,1046.93726 1188.21875,1045.17358 Z M1183.9967,1033.53467 C1182.72375,1035.08667 1181.7207,1036.8042 1181.01318,1038.625 L1186.97839,1038.625 C1186.27014,1036.80969 1185.26782,1035.0918 1183.9967,1033.53467 Z M1165.625,1045.65625 L1165.625,1069.5625 L1168.53125,1069.5625 C1168.53125,1066.46069 1171.05444,1063.9375 1174.15625,1063.9375 C1174.40491,1063.9375 1174.65283,1063.95435 1174.89893,1063.98804 C1175.87817,1062.25256 1177.7312,1061.125 1179.78125,1061.125 L1179.78125,1057.14575 C1179.70288,1056.93555 1179.59668,1056.67737 1179.47546,1056.38806 L1177.96301,1057.90051 C1177.41406,1058.44983 1176.52344,1058.44983 1175.97449,1057.90051 C1175.42517,1057.3512 1175.42517,1056.46094 1175.97449,1055.91199 L1178.36255,1053.52356 C1177.43567,1050.7854 1176.96875,1048.02893 1176.96875,1045.17358 C1176.96875,1044.86523 1176.97644,1044.55615 1176.98999,1044.2489 L1167.03125,1044.2489 C1166.25598,1044.2489 1165.625,1044.88098 1165.625,1045.65625 Z M1200.96875,1075.1875 C1202.80237,1075.1875 1204.36609,1074.01086 1204.94653,1072.3739 L1163.05347,1072.3739 C1163.63391,1074.01086 1165.19763,1075.1875 1167.03125,1075.1875 L1200.96875,1075.1875 Z M1185.40625,1045.65625 C1185.40625,1046.43298 1184.77673,1047.0625 1184,1047.0625 C1183.22327,1047.0625 1182.59375,1046.43298 1182.59375,1045.65625 C1182.59375,1044.87952 1183.22327,1044.25 1184,1044.25 C1184.77673,1044.25 1185.40625,1044.87952 1185.40625,1045.65625 Z" id="ic-belief-product-driven"></path>
        </g>
    </g>
</svg>